<svg aria-hidden="true" style="position: absolute; width: 0; height: 0; overflow: hidden;" version="1.1" xmlns="http://www.w3.org/2000/svg" xmlns:xlink="http://www.w3.org/1999/xlink">
<defs>
<symbol id="icon-crown" viewBox="0 0 32 32">
<path d="M29.687 10.327c-0.237-0.219-0.539-0.371-0.874-0.424l-0.010-0.001c-0.071-0.011-0.153-0.017-0.237-0.017-0.261 0-0.508 0.062-0.726 0.172l0.009-0.004-6.313 3.080c-0.033 0.020-0.072 0.032-0.114 0.032-0.059 0-0.113-0.023-0.153-0.061l0 0c-0.024-0.022-0.043-0.049-0.057-0.079l-0.001-0.002-3.688-7.288c-0.148-0.3-0.365-0.545-0.631-0.724l-0.007-0.004c-0.25-0.166-0.556-0.266-0.886-0.267h-0c-0.33 0.001-0.637 0.101-0.893 0.271l0.006-0.004c-0.273 0.183-0.49 0.428-0.634 0.717l-0.005 0.011-3.687 7.287c-0.015 0.032-0.035 0.059-0.059 0.081l-0 0c-0.023 0.022-0.051 0.039-0.081 0.050l-0.002 0.001c-0.030 0.010-0.062 0.013-0.093 0.010-0.034-0.004-0.064-0.015-0.091-0.031l0.001 0.001-6.313-3.080c-0.211-0.108-0.46-0.172-0.723-0.172-0.081 0-0.16 0.006-0.238 0.018l0.009-0.001c-0.344 0.053-0.646 0.205-0.885 0.424l0.001-0.001c-0.251 0.232-0.44 0.527-0.542 0.86l-0.004 0.014c-0.058 0.183-0.091 0.394-0.091 0.613 0 0.158 0.017 0.312 0.050 0.46l-0.003-0.014 3.189 14.891c0.053 0.251 0.153 0.489 0.293 0.697s0.316 0.383 0.519 0.513c0.267 0.18 0.575 0.275 0.888 0.275 0.16-0.001 0.32-0.025 0.475-0.069 2.671-0.846 5.743-1.333 8.928-1.333 3.169 0 6.226 0.483 9.101 1.378l-0.216-0.058c0.227 0.072 0.465 0.093 0.7 0.060 0.251-0.035 0.477-0.122 0.673-0.25l-0.006 0.004c0.209-0.137 0.384-0.309 0.519-0.509l0.004-0.006c0.141-0.209 0.243-0.447 0.297-0.701l3.175-14.891c0.033-0.139 0.052-0.297 0.052-0.461 0-0.211-0.032-0.416-0.090-0.608l0.004 0.015c-0.103-0.346-0.29-0.641-0.539-0.87l-0.001-0.001zM28.813 11.867l-3.188 14.891c-0.017 0.073-0.057 0.134-0.111 0.178l-0.001 0c-0.040 0.022-0.087 0.035-0.137 0.035-0.022 0-0.044-0.003-0.065-0.007l0.002 0c-2.786-0.881-5.99-1.389-9.313-1.389s-6.527 0.508-9.539 1.45l0.226-0.061c-0.021 0.007-0.044 0.011-0.069 0.011-0.048 0-0.092-0.015-0.128-0.040l0.001 0c-0.030-0.020-0.055-0.046-0.074-0.075l-0.001-0.001c-0.019-0.029-0.034-0.063-0.041-0.1l-0-0.002-3.187-14.891c-0.003-0.016-0.005-0.035-0.005-0.054 0-0.068 0.021-0.13 0.057-0.182l-0.001 0.001c0.023-0.032 0.053-0.058 0.087-0.077l0.001-0.001c0.032-0.018 0.069-0.029 0.109-0.030h0l0.1 0.027 6.325 3.093c0.208 0.106 0.453 0.169 0.713 0.169 0.198 0 0.388-0.036 0.563-0.102l-0.011 0.004c0.43-0.168 0.771-0.484 0.967-0.884l0.005-0.011 3.687-7.288c0.020-0.043 0.049-0.079 0.086-0.105l0.001-0.001c0.035-0.024 0.078-0.039 0.125-0.039s0.090 0.014 0.126 0.039l-0.001-0c0.038 0.026 0.068 0.062 0.087 0.104l0.001 0.002 3.687 7.287c0.211 0.422 0.558 0.741 0.973 0.895s0.867 0.128 1.265-0.069l6.325-3.093c0.030-0.015 0.065-0.024 0.103-0.024 0.062 0 0.118 0.025 0.159 0.064l-0-0c0.037 0.033 0.064 0.075 0.079 0.123l0.001 0.002c0.009 0.027 0.014 0.058 0.014 0.091 0 0.021-0.002 0.042-0.006 0.062l0-0.002zM20.75 22.315c-0.021 0.207-0.111 0.39-0.247 0.527l0-0c-0.129 0.13-0.306 0.211-0.502 0.215h-0.076c-1.178-0.138-2.542-0.217-3.925-0.217s-2.747 0.079-4.089 0.232l0.164-0.015c-0.023 0.003-0.050 0.004-0.078 0.004-0.181 0-0.347-0.069-0.472-0.181l0.001 0.001c-0.153-0.139-0.255-0.332-0.276-0.549l-0-0.003c-0.002-0.023-0.003-0.049-0.003-0.076 0-0.199 0.065-0.383 0.174-0.532l-0.002 0.002c0.118-0.162 0.296-0.274 0.501-0.302l0.004-0c1.223-0.151 2.639-0.237 4.075-0.237s2.852 0.086 4.243 0.254l-0.168-0.016c0.196 0.024 0.375 0.131 0.501 0.297s0.188 0.38 0.173 0.596z"></path>
</symbol>
<symbol id="icon-cosmetics" viewBox="0 0 31 32">
<path d="M8.56 12.129h-8.681c-0.267 0-0.483 0.207-0.483 0.462v2.776c0 0.256 0.216 0.463 0.483 0.463h0.482v10.642c0 0.256 0.216 0.463 0.483 0.463h6.751c0.266 0 0.483-0.207 0.483-0.463v-10.642h0.482c0.266 0 0.482-0.207 0.482-0.463v-2.775c0-0.256-0.216-0.464-0.482-0.464zM3.256 20.92v-0.925h2.893v-0.925h-2.893v-0.925h3.858v6.015h-3.857v-2.313h0.965v-0.925h-0.965zM7.113 17.219h-4.34c-0.266 0-0.482 0.207-0.482 0.463v6.94c0 0.256 0.216 0.463 0.482 0.463h4.34v0.925h-5.787v-10.18h5.787v1.388zM8.078 14.905h-7.717v-1.851h7.717v1.851zM14.951 12.216v-3.383c0-0.264-0.216-0.477-0.483-0.477h-0.482v-2.381h0.965v-0.953h-5.305v0.953h3.376v2.381h-0.483c-0.001 0-0.002 0-0.003 0-0.264 0-0.478 0.213-0.479 0.477v3.383c-1.099 0.221-1.929 1.183-1.929 2.333v11.909c0 0.264 0.216 0.477 0.483 0.477h5.787c0.001 0 0.002 0 0.003 0 0.264 0 0.478-0.213 0.479-0.477v-11.909c0-1.149-0.829-2.112-1.928-2.333zM13.021 9.31h0.965v2.858h-0.965v-2.858zM12.539 13.12h1.929c0.798 0 1.447 0.641 1.447 1.429v0.477h-4.822v-0.477c0-0.788 0.649-1.429 1.447-1.429zM15.915 24.076h-4.823v-0.951h1.929v-0.953h-1.929v-6.193h4.822v8.099zM11.092 25.982v-0.953h4.822v0.953h-4.822zM27.278 11.537h-8.138c-0.25 0.004-0.452 0.208-0.452 0.459 0 0.003 0 0.006 0 0.008v-0 14.465c0 0.258 0.202 0.466 0.452 0.466h8.138c0.249 0 0.452-0.209 0.452-0.466v-14.466c0-0.002 0-0.005 0-0.008 0-0.251-0.201-0.455-0.452-0.459h-0zM26.826 26.002h-7.234v-13.532h7.234v13.531z"></path>
<path d="M6.631 21.013h-1.206v0.592h1.206v-0.592zM15.071 22.198h-1.206v1.184h1.206v-1.184zM13.564 21.013c1.163 0 2.109-0.93 2.109-2.073s-0.946-2.073-2.109-2.073c-1.164 0-2.11 0.93-2.11 2.073s0.946 2.073 2.109 2.073zM13.564 17.904c0.581 0 1.055 0.465 1.055 1.036s-0.473 1.036-1.055 1.036c-0.581 0-1.055-0.465-1.055-1.036s0.473-1.036 1.055-1.036zM22.079 16.274h2.26c0.873 0 1.583-0.663 1.583-1.48s-0.71-1.48-1.583-1.48h-2.26c-0.872 0-1.582 0.664-1.582 1.48s0.71 1.48 1.582 1.48zM25.017 14.794c0 0.349-0.304 0.634-0.679 0.634h-0.678v-1.269h0.678c0.374 0 0.679 0.285 0.679 0.635zM22.079 14.16h0.678v1.269h-0.678c-0.374 0-0.679-0.285-0.679-0.634s0.304-0.635 0.679-0.635zM22.079 21.013h2.26c0.873 0 1.583-0.797 1.583-1.776s-0.71-1.777-1.583-1.777h-2.26c-0.872 0-1.582 0.797-1.582 1.776s0.71 1.776 1.582 1.776zM25.017 19.237c0 0.419-0.304 0.761-0.679 0.761h-0.678v-1.522h0.678c0.374 0 0.679 0.342 0.679 0.761zM22.079 18.474h0.678v1.523h-0.678c-0.374 0-0.679-0.342-0.679-0.761s0.304-0.761 0.679-0.761zM22.079 25.159h2.26c0.873 0 1.583-0.797 1.583-1.776s-0.71-1.777-1.583-1.777h-2.26c-0.872 0-1.582 0.797-1.582 1.776s0.71 1.777 1.582 1.777zM25.017 23.382c0 0.419-0.304 0.761-0.679 0.761h-0.678v-1.523h0.678c0.374 0 0.679 0.342 0.679 0.761zM22.079 22.621h0.678v1.523h-0.678c-0.374 0-0.679-0.342-0.679-0.761s0.304-0.761 0.679-0.761z"></path>
</symbol>
<symbol id="icon-atom" viewBox="0 0 32 32">
<path d="M16.061 1.4c-1.050 0-2.031 0.478-2.867 1.261s-1.551 1.873-2.148 3.195c-0.125 0.277-0.244 0.565-0.358 0.861-0.219-0.038-0.536-0.081-0.856-0.114l-0.071-0.006c-0.301-0.033-0.667-0.057-1.037-0.066l-0.018-0c-1.027-0.025-1.965 0.080-2.787 0.329-1.096 0.333-2 0.943-2.525 1.852s-0.601 1.998-0.341 3.113c0.26 1.115 0.847 2.28 1.693 3.457 0.177 0.247 0.367 0.494 0.567 0.742-0.169 0.206-0.355 0.447-0.534 0.694l-0.033 0.047c-0.846 1.177-1.433 2.342-1.693 3.457s-0.183 2.204 0.341 3.113c0.525 0.909 1.43 1.519 2.526 1.851s2.398 0.407 3.84 0.263c0.303-0.030 0.611-0.071 0.926-0.12 0.111 0.291 0.231 0.579 0.359 0.863 0.597 1.321 1.312 2.411 2.148 3.195s1.817 1.261 2.867 1.261 2.031-0.479 2.867-1.261c0.835-0.783 1.551-1.873 2.147-3.195 0.129-0.284 0.248-0.572 0.36-0.863 0.313 0.049 0.622 0.090 0.924 0.12 1.443 0.144 2.745 0.070 3.841-0.263 1.097-0.332 2.001-0.943 2.526-1.852s0.601-1.997 0.341-3.113c-0.26-1.115-0.847-2.28-1.693-3.457-0.212-0.294-0.398-0.536-0.59-0.772l0.024 0.030c0.196-0.242 0.385-0.489 0.567-0.742 0.847-1.177 1.433-2.342 1.693-3.457s0.184-2.204-0.341-3.113c-0.525-0.909-1.43-1.52-2.525-1.852-0.822-0.249-1.76-0.353-2.787-0.329-0.387 0.010-0.753 0.034-1.115 0.072l0.060-0.005c-0.302 0.030-0.611 0.071-0.926 0.12-0.152-0.401-0.272-0.685-0.4-0.965l0.042 0.103c-0.597-1.321-1.312-2.412-2.148-3.195s-1.817-1.261-2.867-1.261zM16.061 2.567c0.7 0 1.387 0.308 2.068 0.946 0.68 0.638 1.331 1.603 1.881 2.823 0.089 0.199 0.175 0.4 0.255 0.603-1.339 0.298-2.756 0.755-4.205 1.365-1.449-0.61-2.867-1.067-4.205-1.364 0.083-0.207 0.168-0.409 0.255-0.603 0.551-1.22 1.201-2.185 1.882-2.823s1.367-0.945 2.068-0.945zM8.337 7.696c0.017-0 0.038-0 0.059-0 0.44 0 0.875 0.023 1.304 0.067l-0.054-0.005c0.213 0.021 0.431 0.048 0.652 0.080-0.412 1.309-0.725 2.764-0.922 4.324-1.253 0.95-2.357 1.95-3.284 2.96-0.111-0.138-0.241-0.309-0.367-0.482l-0.029-0.041c-0.781-1.087-1.292-2.133-1.504-3.041s-0.135-1.657 0.215-2.263c0.35-0.607 0.96-1.047 1.853-1.318 0.586-0.178 1.287-0.273 2.077-0.28zM23.785 7.696c0.789 0.007 1.491 0.103 2.077 0.281 0.893 0.271 1.503 0.711 1.853 1.318s0.427 1.355 0.215 2.263c-0.212 0.909-0.723 1.955-1.504 3.041-0.127 0.177-0.26 0.352-0.395 0.524-0.927-1.011-2.031-2.010-3.283-2.96-0.196-1.56-0.51-3.016-0.921-4.324 0.22-0.033 0.438-0.060 0.651-0.081 0.376-0.040 0.811-0.063 1.252-0.063 0.020 0 0.040 0 0.059 0h-0.003zM20.665 8.049c0.291 0.874 0.555 1.941 0.741 3.035l0.019 0.134c-1.102-0.757-2.375-1.503-3.699-2.16l-0.185-0.083c0.855-0.336 1.899-0.655 2.972-0.897l0.152-0.029zM11.458 8.049c0.99 0.213 2.040 0.523 3.123 0.927-1.509 0.739-2.781 1.485-3.992 2.312l0.109-0.071c0.205-1.227 0.469-2.294 0.805-3.328l-0.045 0.16zM16.061 9.577c1.16 0.514 2.104 1.003 3.017 1.538l-0.141-0.076c0.963 0.555 1.867 1.147 2.705 1.761 0.113 1.033 0.173 2.112 0.173 3.223 0 1.11-0.061 2.189-0.173 3.221-0.766 0.568-1.649 1.149-2.563 1.684l-0.142 0.077c-0.773 0.459-1.717 0.948-2.689 1.386l-0.189 0.076c-1.16-0.514-2.105-1.003-3.018-1.538l0.141 0.076c-1.055-0.611-1.938-1.192-2.786-1.818l0.082 0.058c-0.11-0.962-0.173-2.078-0.173-3.208 0-0.005 0-0.010 0-0.016v0.001c0-1.111 0.060-2.19 0.173-3.223 0.766-0.568 1.649-1.15 2.563-1.684l0.141-0.076c0.772-0.459 1.716-0.947 2.688-1.385l0.188-0.076zM16.14 11.335l-3.344 2.064 3.344 2.063 3.343-2.063-3.343-2.064zM9.217 13.781c-0.050 0.671-0.079 1.453-0.079 2.242s0.029 1.571 0.085 2.346l-0.006-0.104c-0.859-0.708-1.631-1.441-2.348-2.226l-0.016-0.017c0.733-0.801 1.505-1.534 2.325-2.211l0.039-0.031zM22.905 13.781c0.859 0.708 1.63 1.441 2.348 2.225l0.015 0.017c-0.733 0.801-1.505 1.534-2.325 2.21l-0.039 0.031c0.050-0.671 0.079-1.453 0.079-2.242s-0.029-1.571-0.085-2.345l0.006 0.104zM12.043 14.306v4.075l3.512 2.167v-4.075l-3.512-2.167zM20.234 14.308l-3.511 2.167v4.073l3.511-2.167v-4.073zM6.091 16.923c0.927 1.011 2.031 2.010 3.284 2.96 0.196 1.56 0.51 3.015 0.921 4.323-0.22 0.032-0.438 0.059-0.651 0.080-1.331 0.133-2.493 0.053-3.385-0.218s-1.503-0.711-1.853-1.318c-0.349-0.607-0.427-1.355-0.215-2.263s0.723-1.955 1.504-3.041c0.127-0.177 0.259-0.351 0.395-0.523zM26.030 16.923c0.138 0.175 0.27 0.349 0.395 0.523 0.781 1.087 1.292 2.133 1.504 3.041s0.135 1.657-0.215 2.263c-0.35 0.607-0.96 1.047-1.853 1.318s-2.053 0.351-3.385 0.218c-0.217-0.022-0.433-0.049-0.65-0.080 0.412-1.309 0.725-2.765 0.921-4.325 1.253-0.949 2.357-1.949 3.283-2.959zM21.425 20.829c-0.205 1.228-0.469 2.295-0.805 3.329l0.045-0.16c-1.225-0.272-2.269-0.59-3.278-0.979l0.155 0.053c1.51-0.74 2.782-1.486 3.993-2.313l-0.11 0.071zM10.698 20.829c1.102 0.757 2.373 1.503 3.697 2.159l0.185 0.083c-0.854 0.336-1.898 0.655-2.971 0.898l-0.152 0.029c-0.291-0.874-0.555-1.941-0.741-3.034l-0.019-0.134zM16.095 20.882l0.043 0.027 0.043-0.027h-0.085zM16.061 23.743c1.449 0.61 2.867 1.067 4.206 1.364-0.081 0.203-0.167 0.405-0.256 0.605-0.551 1.219-1.201 2.185-1.882 2.823-0.68 0.638-1.367 0.945-2.067 0.945s-1.387-0.307-2.068-0.945c-0.681-0.638-1.331-1.603-1.882-2.823-0.089-0.2-0.175-0.401-0.256-0.605 1.339-0.297 2.757-0.754 4.205-1.364z"></path>
</symbol>
</defs>
</svg>
